<svg xmlns="http://www.w3.org/2000/svg" version="1.1" xmlns:xlink="http://www.w3.org/1999/xlink" xmlns:svgjs="http://svgjs.dev/svgjs" width="128" height="128" viewBox="0 0 128 128"><g transform="matrix(0.8046875,0,0,0.8046875,12.221578124999994,21.074912615142935)"><svg viewBox="0 0 96 80" data-background-color="#000000" preserveAspectRatio="xMidYMid meet" height="106" width="128" xmlns="http://www.w3.org/2000/svg" xmlns:xlink="http://www.w3.org/1999/xlink"><g id="tight-bounds" transform="matrix(1,0,0,1,0.25950000000000273,0.2594701246507043)"><svg viewBox="0 0 95.481 79.4810597506986" height="79.4810597506986" width="95.481"><g><svg viewBox="0 0 95.481 79.4810597506986" height="79.4810597506986" width="95.481"><g><svg viewBox="0 0 95.481 79.4810597506986" height="79.4810597506986" width="95.481"><g id="textblocktransform"><svg viewBox="0 0 95.481 79.4810597506986" height="79.4810597506986" width="95.481" id="textblock"><g><svg viewBox="0 0 95.481 79.4810597506986" height="79.4810597506986" width="95.481"><g><svg viewBox="0 0 95.481 79.4810597506986" height="79.4810597506986" width="95.481"><g><svg xmlns="http://www.w3.org/2000/svg" xmlns:xlink="http://www.w3.org/1999/xlink" version="1.1" x="0" y="0" viewBox="2.226 10.232 95.547 79.536" enable-background="new 0 0 100 100" xml:space="preserve" height="79.4810597506986" width="95.481" class="icon-icon-0" data-fill-palette-color="accent" id="icon-0"><g fill="#10eaf7" data-fill-palette-color="accent"><g fill="#10eaf7" data-fill-palette-color="accent"><polygon fill="#10eaf7" points="10.886,89.768 24.015,89.768 24.015,40.683 2.226,40.683   " data-fill-palette-color="accent"></polygon><path fill="#10eaf7" d="M97.773 48.294C97.773 43.045 93.575 42.252 93.575 42.252H66.275S64.434 39.895 66.009 34.905C67.583 29.916 67.85 22.569 66.535 19.419 65.226 16.27 62.86 10.493 56.822 10.232 53.281 10.774 52.097 13.642 52.097 13.642V25.197S40.814 45.667 39.24 45.927C37.661 46.193 31.376 46.981 31.376 46.981V83.206H33.202S46.587 89.767 49.209 89.767H82.287S87.011 88.714 87.011 83.468C87.011 80.058 84.123 77.952 84.123 77.952S91.214 77.429 91.214 71.393C91.214 68.914 87.797 66.668 87.797 66.668S94.362 65.354 94.102 59.844C93.575 56.432 91.736 54.592 91.736 54.592S97.773 53.541 97.773 48.294" data-fill-palette-color="accent"></path></g></g></svg></g></svg></g></svg></g></svg></g></svg></g></svg></g><defs></defs></svg><rect width="95.481" height="79.4810597506986" fill="none" stroke="none" visibility="hidden"></rect></g></svg></g></svg>