<svg xmlns="http://www.w3.org/2000/svg" version="1.1" xmlns:xlink="http://www.w3.org/1999/xlink" xmlns:svgjs="http://svgjs.dev/svgjs" width="1500" height="1500" viewBox="0 0 1500 1500"><rect width="1500" height="1500" fill="#000000"></rect><g transform="matrix(0.6666666666666666,0,0,0.6666666666666666,249.39445074921974,678.9754313766966)"><svg viewBox="0 0 396 56" data-background-color="#000000" preserveAspectRatio="xMidYMid meet" height="212" width="1500" xmlns="http://www.w3.org/2000/svg" xmlns:xlink="http://www.w3.org/1999/xlink"><g id="tight-bounds" transform="matrix(1,0,0,1,0.23979750330897787,0.14181020923342658)"><svg viewBox="0 0 395.52 55.716379581533154" height="55.716379581533154" width="395.52"><g><svg viewBox="0 0 490.2875453582268 69.06615842758171" height="55.716379581533154" width="395.52"><g transform="matrix(1,0,0,1,94.76754535822681,9.545322908587632)"><svg viewBox="0 0 395.52 49.97551261040645" height="49.97551261040645" width="395.52"><g id="textblocktransform"><svg viewBox="0 0 395.52 49.97551261040645" height="49.97551261040645" width="395.52" id="textblock"><g><svg viewBox="0 0 395.52 49.97551261040645" height="49.97551261040645" width="395.52"><g transform="matrix(1,0,0,1,0,0)"><svg width="395.52" viewBox="2.32 -35.21 283.62363999849543 35.84" height="49.97551261040645" data-palette-color="#ffffff"><g transform="matrix(1,0,0,1,0,0)"><g><svg width="15.261869998495403" viewBox="3.16 -36.36 100.01 36.36" height="5.548785683812992" data-palette-color="#ffffff" id="scriptelement" x="267.5209349992477" y="-13.566162841906497"><path d="M16.05 0L16.05 0 3.16 0 3.16-36.36 16.16-36.36Q21.64-36.36 25.6-34.19 29.56-32.01 31.7-27.95 33.84-23.88 33.84-18.22L33.84-18.22Q33.84-12.54 31.7-8.45 29.56-4.37 25.58-2.18 21.59 0 16.05 0ZM10.85-29.78L10.85-6.59 15.73-6.59Q19.14-6.59 21.48-7.8 23.81-9.02 24.99-11.59 26.17-14.15 26.17-18.22L26.17-18.22Q26.17-22.25 24.99-24.8 23.81-27.36 21.48-28.57 19.16-29.78 15.75-29.78L15.75-29.78 10.85-29.78ZM64.1 0L39.52 0 39.52-36.36 64.02-36.36 64.02-30.02 47.21-30.02 47.21-21.36 62.76-21.36 62.76-15.02 47.21-15.02 47.21-6.34 64.1-6.34 64.1 0ZM68.18-36.36L76.72-36.36 85.51-8.74 85.84-8.74 94.65-36.36 103.17-36.36 90.64 0 80.73 0 68.18-36.36Z" opacity="1" transform="matrix(1,0,0,1,0,0)" fill="#ffffff" class="undefined-123" data-fill-palette-color="primary" id="tk-123"></path></svg></g></g><path d="M264.36-10.792C264.36-16.752 269.192-21.584 275.152-21.584 281.112-21.584 285.944-16.752 285.944-10.792 285.944-4.832 281.112 0 275.152 0 269.192 0 264.36-4.832 264.36-10.792ZM275.152-0.4C280.891-0.4 285.544-5.053 285.544-10.792 285.544-16.531 280.891-21.184 275.152-21.184 269.413-21.184 264.76-16.531 264.76-10.792 264.76-5.053 269.413-0.4 275.152-0.4Z" fill="#ffffff" id="scriptcircle" data-fill-palette-color="primary"></path><g class="wordmark-text-0" data-fill-palette-color="primary" id="text-0"><path d="M3.49-22.14L6.79-22.14Q7.69-22.14 7.79-21.26L7.79-21.26Q7.86-20.78 7.91-20.29 7.96-19.8 8.01-19.31L8.01-19.31Q8.01-19.26 8.06-19.03 8.11-18.8 8.23-18.8L8.23-18.8Q8.35-18.8 8.46-18.95 8.57-19.09 8.62-19.17L8.62-19.17Q10.08-21.04 12.18-21.88 14.28-22.71 16.6-22.71L16.6-22.71Q18.51-22.71 20.1-21.91 21.7-21.12 22.68-19.67 23.66-18.21 23.66-16.21L23.66-16.21Q23.66-12.43 23.74-8.62 23.83-4.81 23.83-1.03L23.83-1.03Q23.83 0 22.83 0L22.83 0 18.99 0Q18.07 0 17.99-1L17.99-1Q17.92-2.05 17.94-3.11 17.97-4.17 17.94-5.22L17.94-5.22Q17.92-7.47 17.92-9.69 17.92-11.91 17.92-14.14L17.92-14.14Q17.92-15.87 16.92-16.74 15.92-17.6 14.26-17.6L14.26-17.6Q12.18-17.6 10.85-16.33 9.52-15.06 8.87-13.21 8.23-11.35 8.23-9.57L8.23-9.57Q8.23-7.42 8.2-5.29 8.18-3.15 8.15-1L8.15-1Q8.15 0 7.15 0L7.15 0 3.32 0Q2.32 0 2.32-1.03L2.32-1.03Q2.32-2.39 2.36-3.75 2.39-5.1 2.42-6.45L2.42-6.45Q2.49-12.16 2.49-17.87L2.49-17.87 2.49-21.14Q2.49-22.14 3.49-22.14L3.49-22.14ZM39.35 0.59L39.35 0.59Q35.79 0.59 33.14-0.83 30.49-2.25 29.03-4.86 27.56-7.47 27.56-11.06L27.56-11.06Q27.56-14.4 28.95-17.07 30.34-19.73 32.88-21.28 35.42-22.83 38.84-22.83L38.84-22.83Q43.06-22.83 45.47-20.46 47.87-18.09 48.73-14.16L48.73-14.16Q48.75-14.09 48.75-13.92L48.75-13.92Q48.75-13.55 48.57-13.37 48.39-13.18 48.09-13.06L48.09-13.06Q47.26-12.67 46.34-12.38 45.41-12.08 44.53-11.74L44.53-11.74Q41.97-10.79 39.38-9.88 36.79-8.96 34.25-7.93L34.25-7.93Q34.06-7.84 34.06-7.69L34.06-7.69Q34.06-7.62 34.1-7.52L34.1-7.52Q35.08-5.76 36.79-4.91 38.5-4.05 40.45-4.05L40.45-4.05Q41.99-4.05 43.32-4.54 44.65-5.03 45.94-5.76L45.94-5.76Q46.12-5.86 46.29-5.93 46.46-6.01 46.63-6.01L46.63-6.01Q46.97-6.01 47.15-5.8 47.34-5.59 47.46-5.32L47.46-5.32Q47.56-5.15 47.84-4.55 48.12-3.96 48.37-3.36 48.63-2.76 48.63-2.59L48.63-2.59Q48.63-2.32 48.48-2.15 48.34-1.98 48.14-1.83L48.14-1.83Q46.41-0.63 43.93-0.02 41.45 0.59 39.35 0.59ZM33.23-11.3L33.23-11.3Q35.69-12.16 38.16-13.01 40.62-13.87 43.06-14.72L43.06-14.72Q42.45-16.06 41.37-17.07 40.28-18.07 38.69-18.07L38.69-18.07Q36.84-18.07 35.62-17.07 34.4-16.06 33.81-14.51 33.23-12.96 33.23-11.3ZM66.08-22.14L66.08-22.14 68.79-22.14Q69.36-22.14 69.67-21.61L69.67-21.61Q70.09-20.92 70.45-20.14 70.82-19.36 71.21-18.63L71.21-18.63Q72.14-16.85 73.05-15.04 73.97-13.23 74.92-11.43L74.92-11.43Q75.07-11.16 75.19-11.16L75.19-11.16Q75.34-11.16 75.46-11.43L75.46-11.43Q76.34-13.21 77.14-15.03 77.95-16.85 78.78-18.63L78.78-18.63Q79.12-19.34 79.45-20.12 79.78-20.9 80.17-21.58L80.17-21.58Q80.51-22.14 81.07-22.14L81.07-22.14 84.52-22.14Q84.86-22.14 85.24-22.02 85.62-21.9 85.62-21.46L85.62-21.46Q85.62-21.26 85.55-21.08 85.49-20.9 85.42-20.73L85.42-20.73Q84.15-17.8 82.83-14.89 81.51-11.99 80.22-9.06L80.22-9.06Q79.32-6.96 78.41-4.83 77.51-2.71 76.53-0.61L76.53-0.61Q76.44-0.37 76.22 0 76 0.37 75.65 0.37L75.65 0.37Q75.34 0.37 75.1 0.01 74.87-0.34 74.75-0.56L74.75-0.56Q73.09-3.61 71.59-6.75 70.09-9.89 68.48-12.96L68.48-12.96Q68.45-13.04 68.38-13.15 68.31-13.26 68.21-13.26L68.21-13.26Q68.11-13.26 68.04-13.15 67.96-13.04 67.91-12.96L67.91-12.96Q66.43-9.94 65.08-6.81 63.74-3.69 62.23-0.66L62.23-0.66Q62.13-0.42 61.9-0.05 61.66 0.32 61.32 0.32L61.32 0.32Q61.01 0.32 60.77-0.06 60.54-0.44 60.42-0.68L60.42-0.68Q59.37-2.93 58.41-5.21 57.44-7.5 56.44-9.74L56.44-9.74Q55.22-12.5 53.97-15.25 52.73-17.99 51.51-20.73L51.51-20.73Q51.44-20.9 51.37-21.08 51.31-21.26 51.31-21.46L51.31-21.46Q51.31-21.9 51.69-22.02 52.07-22.14 52.41-22.14L52.41-22.14 55.85-22.14Q56.42-22.14 56.73-21.61L56.73-21.61Q57.1-21 57.43-20.32 57.76-19.65 58.08-19.02L58.08-19.02Q59-17.16 59.93-15.3 60.86-13.43 61.84-11.6L61.84-11.6Q61.98-11.33 62.1-11.33L62.1-11.33Q62.25-11.33 62.37-11.6L62.37-11.6Q62.47-11.79 62.89-12.61 63.3-13.43 63.84-14.53 64.37-15.63 64.9-16.69 65.42-17.75 65.78-18.46 66.13-19.17 66.13-19.19L66.13-19.19Q66.13-19.36 65.85-19.79 65.57-20.21 65.3-20.7 65.03-21.19 65.03-21.51L65.03-21.51Q65.03-21.92 65.4-22.03 65.77-22.14 66.08-22.14ZM89.2-9.86L89.2-9.86Q89.2-10.64 89.21-11.45 89.23-12.26 89.23-13.04L89.23-13.04Q89.23-14.04 90.23-14.04L90.23-14.04 102.14-14.04Q103.14-14.04 103.14-13.04L103.14-13.04Q103.14-12.23 103.15-11.44 103.17-10.64 103.17-9.84L103.17-9.84Q103.17-8.84 102.17-8.84L102.17-8.84 90.23-8.84Q89.2-8.84 89.2-9.86ZM121.84-22.14L121.84-22.14 124.55-22.14Q125.11-22.14 125.43-21.61L125.43-21.61Q125.84-20.92 126.21-20.14 126.58-19.36 126.97-18.63L126.97-18.63Q127.9-16.85 128.81-15.04 129.73-13.23 130.68-11.43L130.68-11.43Q130.82-11.16 130.95-11.16L130.95-11.16Q131.09-11.16 131.22-11.43L131.22-11.43Q132.09-13.21 132.9-15.03 133.71-16.85 134.54-18.63L134.54-18.63Q134.88-19.34 135.21-20.12 135.54-20.9 135.93-21.58L135.93-21.58Q136.27-22.14 136.83-22.14L136.83-22.14 140.27-22.14Q140.62-22.14 140.99-22.02 141.37-21.9 141.37-21.46L141.37-21.46Q141.37-21.26 141.31-21.08 141.25-20.9 141.18-20.73L141.18-20.73Q139.91-17.8 138.59-14.89 137.27-11.99 135.98-9.06L135.98-9.06Q135.07-6.96 134.17-4.83 133.27-2.71 132.29-0.61L132.29-0.61Q132.19-0.37 131.97 0 131.75 0.37 131.41 0.37L131.41 0.37Q131.09 0.37 130.86 0.01 130.63-0.34 130.51-0.56L130.51-0.56Q128.85-3.61 127.35-6.75 125.84-9.89 124.23-12.96L124.23-12.96Q124.21-13.04 124.14-13.15 124.06-13.26 123.96-13.26L123.96-13.26Q123.87-13.26 123.79-13.15 123.72-13.04 123.67-12.96L123.67-12.96Q122.18-9.94 120.84-6.81 119.5-3.69 117.98-0.66L117.98-0.66Q117.89-0.42 117.65-0.05 117.42 0.32 117.08 0.32L117.08 0.32Q116.76 0.32 116.53-0.06 116.3-0.44 116.18-0.68L116.18-0.68Q115.13-2.93 114.16-5.21 113.2-7.5 112.2-9.74L112.2-9.74Q110.98-12.5 109.73-15.25 108.49-17.99 107.27-20.73L107.27-20.73Q107.19-20.9 107.13-21.08 107.07-21.26 107.07-21.46L107.07-21.46Q107.07-21.9 107.45-22.02 107.83-22.14 108.17-22.14L108.17-22.14 111.61-22.14Q112.17-22.14 112.49-21.61L112.49-21.61Q112.86-21 113.19-20.32 113.52-19.65 113.83-19.02L113.83-19.02Q114.76-17.16 115.69-15.3 116.62-13.43 117.59-11.6L117.59-11.6Q117.74-11.33 117.86-11.33L117.86-11.33Q118.01-11.33 118.13-11.6L118.13-11.6Q118.23-11.79 118.64-12.61 119.06-13.43 119.59-14.53 120.13-15.63 120.66-16.69 121.18-17.75 121.54-18.46 121.89-19.17 121.89-19.19L121.89-19.19Q121.89-19.36 121.61-19.79 121.33-20.21 121.06-20.7 120.79-21.19 120.79-21.51L120.79-21.51Q120.79-21.92 121.16-22.03 121.52-22.14 121.84-22.14ZM155.65 0.59L155.65 0.59Q152.09 0.59 149.44-0.83 146.79-2.25 145.32-4.86 143.86-7.47 143.86-11.06L143.86-11.06Q143.86-14.4 145.25-17.07 146.64-19.73 149.18-21.28 151.72-22.83 155.14-22.83L155.14-22.83Q159.36-22.83 161.77-20.46 164.17-18.09 165.03-14.16L165.03-14.16Q165.05-14.09 165.05-13.92L165.05-13.92Q165.05-13.55 164.87-13.37 164.68-13.18 164.39-13.06L164.39-13.06Q163.56-12.67 162.63-12.38 161.71-12.08 160.83-11.74L160.83-11.74Q158.26-10.79 155.68-9.88 153.09-8.96 150.55-7.93L150.55-7.93Q150.35-7.84 150.35-7.69L150.35-7.69Q150.35-7.62 150.4-7.52L150.4-7.52Q151.38-5.76 153.09-4.91 154.8-4.05 156.75-4.05L156.75-4.05Q158.29-4.05 159.62-4.54 160.95-5.03 162.24-5.76L162.24-5.76Q162.41-5.86 162.59-5.93 162.76-6.01 162.93-6.01L162.93-6.01Q163.27-6.01 163.45-5.8 163.63-5.59 163.76-5.32L163.76-5.32Q163.85-5.15 164.14-4.55 164.42-3.96 164.67-3.36 164.93-2.76 164.93-2.59L164.93-2.59Q164.93-2.32 164.78-2.15 164.64-1.98 164.44-1.83L164.44-1.83Q162.71-0.63 160.23-0.02 157.75 0.59 155.65 0.59ZM149.52-11.3L149.52-11.3Q151.99-12.16 154.46-13.01 156.92-13.87 159.36-14.72L159.36-14.72Q158.75-16.06 157.67-17.07 156.58-18.07 154.99-18.07L154.99-18.07Q153.14-18.07 151.92-17.07 150.7-16.06 150.11-14.51 149.52-12.96 149.52-11.3ZM192.83-11.01L192.83-11.01Q192.83-7.86 191.51-5.25 190.19-2.64 187.78-1.09 185.36 0.46 182.07 0.46L182.07 0.46Q178.09 0.46 175.25-2.05L175.25-2.05Q175.18-2.1 175.09-2.19 175.01-2.27 174.89-2.27L174.89-2.27Q174.77-2.27 174.74-2.09 174.72-1.9 174.72-1.83L174.72-1.83Q174.72-1.25 174.67-0.62 174.62 0 173.76 0L173.76 0 169.86 0Q168.86 0 168.86-1.03L168.86-1.03Q168.86-2.37 168.89-3.7 168.93-5.03 168.95-6.37L168.95-6.37Q169-9.18 169.03-11.99 169.05-14.79 169.05-17.6L169.05-17.6Q169.05-20.41 169.03-23.22 169-26.03 168.95-28.83L168.95-28.83Q168.93-30.18 168.89-31.51 168.86-32.84 168.86-34.18L168.86-34.18Q168.86-35.21 169.86-35.21L169.86-35.21 173.64-35.21Q174.23-35.21 174.41-34.96 174.59-34.72 174.64-34.2L174.64-34.2Q174.74-33.42 174.7-32.08 174.67-30.74 174.69-29.86L174.69-29.86Q174.72-27.56 174.73-25.29 174.74-23.02 174.74-20.73L174.74-20.73Q174.74-20.63 174.77-20.48 174.79-20.34 174.94-20.34L174.94-20.34Q175.06-20.34 175.25-20.48L175.25-20.48Q178.43-22.73 182.31-22.73L182.31-22.73Q185.78-22.73 188.11-21.15 190.44-19.58 191.64-16.92 192.83-14.26 192.83-11.01ZM180.92-4.93L180.92-4.93Q182.72-4.93 184.09-5.83 185.46-6.74 186.23-8.23 187-9.72 187-11.45L187-11.45Q187-13.21 186.24-14.71 185.48-16.21 184.13-17.14 182.77-18.07 180.92-18.07L180.92-18.07Q179.26-18.07 177.73-17.35 176.21-16.63 175.33-15.16L175.33-15.16Q175.23-14.99 175.03-14.6 174.84-14.21 174.79-14.01L174.79-14.01Q174.74-13.72 174.77-13.33 174.79-12.94 174.79-12.62L174.79-12.62Q174.79-11.69 174.79-10.75 174.79-9.81 174.77-8.89L174.77-8.89Q175.55-6.88 177.18-5.91 178.82-4.93 180.92-4.93ZM201.2 0.63L201.2 0.63Q199.81 0.63 198.3 0.12 196.78-0.39 195.78-1.42L195.78-1.42Q195.49-1.71 195.49-2.05L195.49-2.05Q195.49-2.2 195.65-2.8 195.81-3.39 196-4.03 196.2-4.66 196.25-4.86L196.25-4.86Q196.34-5.15 196.52-5.43 196.69-5.71 197.05-5.71L197.05-5.71Q197.52-5.71 198.49-5.1 199.47-4.49 200.74-4.49L200.74-4.49Q202.96-4.49 202.96-6.64L202.96-6.64Q202.96-8.03 202.07-8.57 201.18-9.11 200.15-9.64L200.15-9.64Q198.1-10.74 197.03-12.33 195.95-13.92 195.95-16.28L195.95-16.28Q195.95-19.29 197.72-20.97 199.49-22.66 202.45-22.66L202.45-22.66Q202.81-22.66 203.58-22.56 204.35-22.46 205.18-22.25 206.01-22.05 206.6-21.69 207.18-21.34 207.18-20.85L207.18-20.85Q207.18-20.39 206.99-19.84 206.79-19.29 206.67-18.82L206.67-18.82Q206.57-18.51 206.4-18.21 206.23-17.92 205.82-17.92L205.82-17.92Q205.3-17.92 204.72-18.19 204.13-18.46 203.45-18.46L203.45-18.46Q202.52-18.46 201.81-17.91 201.11-17.36 201.11-16.36L201.11-16.36Q201.11-15.21 201.8-14.58 202.5-13.94 203.52-13.45 204.55-12.96 205.57-12.26 206.6-11.55 207.29-10.29 207.99-9.03 207.99-6.84L207.99-6.84Q207.99-3.71 206.24-1.54 204.5 0.63 201.2 0.63ZM211.43-30.47L211.43-30.47Q211.43-31.81 212.43-32.78 213.43-33.74 214.77-33.74L214.77-33.74Q216.14-33.74 217.18-32.75 218.22-31.76 218.22-30.37L218.22-30.37Q218.22-29.03 217.23-28.04 216.24-27.05 214.87-27.05L214.87-27.05Q213.48-27.05 212.46-28.06 211.43-29.08 211.43-30.47ZM211.8-15.75L211.8-15.75 211.8-21.14Q211.8-22.14 212.8-22.14L212.8-22.14 216.56-22.14Q217.56-22.14 217.56-21.14L217.56-21.14Q217.56-16.11 217.58-11.07 217.61-6.03 217.61-1L217.61-1Q217.61 0 216.61 0L216.61 0 212.75 0Q211.75 0 211.75-1L211.75-1Q211.75-4.69 211.77-8.37 211.8-12.06 211.8-15.75ZM225.12-22.49L225.12-22.49Q225.12-24.58 225.1-26.67 225.08-28.76 225.08-30.83L225.08-30.83Q225.08-31.84 226.08-31.84L226.08-31.84 229.91-31.84Q230.91-31.84 230.91-30.83L230.91-30.83Q230.91-28.76 230.9-26.67 230.89-24.58 230.89-22.49L230.89-22.49Q230.89-22.19 231.2-22.19L231.2-22.19 235.04-22.19Q236.04-22.19 236.04-21.19L236.04-21.19Q236.04-20.43 236.02-19.67 236.01-18.9 236.01-18.12L236.01-18.12Q236.01-17.11 235.01-17.11L235.01-17.11 231.2-17.11Q230.89-17.11 230.89-16.82L230.89-16.82Q230.89-12.87 230.91-8.91 230.93-4.96 230.93-1L230.93-1Q230.93 0 229.93 0L229.93 0 226.05 0Q225.05 0 225.05-1L225.05-1Q225.05-4.96 225.09-8.91 225.12-12.87 225.12-16.82L225.12-16.82Q225.12-17.19 224.61-17.18 224.1-17.16 223.44-17.09 222.78-17.02 222.27-17.19 221.75-17.36 221.75-18.12L221.75-18.12 221.75-21.19Q221.75-22.19 222.76-22.19L222.76-22.19 224.81-22.19Q225.12-22.19 225.12-22.49ZM250.49 0.59L250.49 0.59Q246.92 0.59 244.27-0.83 241.63-2.25 240.16-4.86 238.7-7.47 238.7-11.06L238.7-11.06Q238.7-14.4 240.09-17.07 241.48-19.73 244.02-21.28 246.56-22.83 249.98-22.83L249.98-22.83Q254.2-22.83 256.6-20.46 259.01-18.09 259.86-14.16L259.86-14.16Q259.89-14.09 259.89-13.92L259.89-13.92Q259.89-13.55 259.7-13.37 259.52-13.18 259.23-13.06L259.23-13.06Q258.4-12.67 257.47-12.38 256.54-12.08 255.66-11.74L255.66-11.74Q253.1-10.79 250.51-9.88 247.92-8.96 245.39-7.93L245.39-7.93Q245.19-7.84 245.19-7.69L245.19-7.69Q245.19-7.62 245.24-7.52L245.24-7.52Q246.22-5.76 247.92-4.91 249.63-4.05 251.59-4.05L251.59-4.05Q253.12-4.05 254.45-4.54 255.79-5.03 257.08-5.76L257.08-5.76Q257.25-5.86 257.42-5.93 257.59-6.01 257.76-6.01L257.76-6.01Q258.1-6.01 258.29-5.8 258.47-5.59 258.59-5.32L258.59-5.32Q258.69-5.15 258.97-4.55 259.25-3.96 259.51-3.36 259.77-2.76 259.77-2.59L259.77-2.59Q259.77-2.32 259.62-2.15 259.47-1.98 259.28-1.83L259.28-1.83Q257.54-0.63 255.07-0.02 252.59 0.59 250.49 0.59ZM244.36-11.3L244.36-11.3Q246.83-12.16 249.29-13.01 251.76-13.87 254.2-14.72L254.2-14.72Q253.59-16.06 252.5-17.07 251.42-18.07 249.83-18.07L249.83-18.07Q247.97-18.07 246.75-17.07 245.53-16.06 244.95-14.51 244.36-12.96 244.36-11.3Z" fill="#ffffff" data-fill-palette-color="primary"></path></g></svg></g></svg></g></svg></g></svg></g><g><svg viewBox="0 0 82.9695262432125 69.06615842758171" height="69.06615842758171" width="82.9695262432125"><g><svg xmlns="http://www.w3.org/2000/svg" xmlns:xlink="http://www.w3.org/1999/xlink" version="1.1" x="0" y="0" viewBox="2.226 10.232 95.547 79.536" enable-background="new 0 0 100 100" xml:space="preserve" height="69.06615842758171" width="82.9695262432125" class="icon-icon-0" data-fill-palette-color="accent" id="icon-0"><g fill="#10eaf7" data-fill-palette-color="accent"><g fill="#10eaf7" data-fill-palette-color="accent"><polygon fill="#10eaf7" points="10.886,89.768 24.015,89.768 24.015,40.683 2.226,40.683   " data-fill-palette-color="accent"></polygon><path fill="#10eaf7" d="M97.773 48.294C97.773 43.045 93.575 42.252 93.575 42.252H66.275S64.434 39.895 66.009 34.905C67.583 29.916 67.85 22.569 66.535 19.419 65.226 16.27 62.86 10.493 56.822 10.232 53.281 10.774 52.097 13.642 52.097 13.642V25.197S40.814 45.667 39.24 45.927C37.661 46.193 31.376 46.981 31.376 46.981V83.206H33.202S46.587 89.767 49.209 89.767H82.287S87.011 88.714 87.011 83.468C87.011 80.058 84.123 77.952 84.123 77.952S91.214 77.429 91.214 71.393C91.214 68.914 87.797 66.668 87.797 66.668S94.362 65.354 94.102 59.844C93.575 56.432 91.736 54.592 91.736 54.592S97.773 53.541 97.773 48.294" data-fill-palette-color="accent"></path></g></g></svg></g></svg></g></svg></g><defs></defs></svg><rect width="395.52" height="55.716379581533154" fill="none" stroke="none" visibility="hidden"></rect></g></svg></g></svg>